<?xml version="1.0" encoding="UTF-8"?>
<svg version="1.1" xmlns="http://www.w3.org/2000/svg" width="192" height="192">
<path d="M0 0 C63.36 0 126.72 0 192 0 C192 63.36 192 126.72 192 192 C128.64 192 65.28 192 0 192 C0 128.64 0 65.28 0 0 Z " fill="#1D9BF0" transform="translate(0,0)"/>
<path d="M0 0 C1.05404274 -0.00021904 1.05404274 -0.00021904 2.12937927 -0.0004425 C4.45062351 0.00025382 6.77178737 0.00803313 9.09301758 0.01586914 C10.70298722 0.01773431 12.31295744 0.01915775 13.92292786 0.02015686 C18.1594703 0.02397421 22.39597843 0.03379785 26.63250732 0.04486084 C30.9559279 0.05509175 35.27935401 0.05965808 39.6027832 0.06469727 C48.08522082 0.0754208 56.56763055 0.09248786 65.05004883 0.11352539 C65.94854929 4.03384831 66.08573158 5.99264218 64.36254883 9.67602539 C64.02868164 10.41981445 63.69481445 11.16360352 63.35083008 11.92993164 C61.75916557 14.60182492 60.53669247 16.19654649 58.05004883 18.11352539 C55.09076604 18.46251512 52.51551362 18.58136738 49.56567383 18.50415039 C48.75007996 18.4984906 47.93448608 18.49283081 47.09417725 18.48699951 C44.49553111 18.46465266 41.89827641 18.41446161 39.30004883 18.36352539 C37.53574586 18.3434581 35.77142123 18.32520773 34.00708008 18.30883789 C29.68753555 18.26479369 25.3690279 18.19577961 21.05004883 18.11352539 C21.06970703 19.15379883 21.08936523 20.19407227 21.10961914 21.26586914 C21.05823888 24.58452882 20.7541428 27.43942339 20.09692383 30.67602539 C19.89180176 31.70751709 19.68667969 32.73900879 19.4753418 33.80175781 C19.25249512 34.89464111 19.02964844 35.98752441 18.80004883 37.11352539 C18.3378949 39.46354691 17.87697891 41.81381219 17.41723633 44.16430664 C17.07063965 45.92508545 17.07063965 45.92508545 16.71704102 47.72143555 C13.44579123 64.35787206 11.18468733 80.89454218 9.66333008 97.77368164 C9.55327637 98.9829834 9.44322266 100.19228516 9.32983398 101.43823242 C9.13774079 103.96159274 9.00513665 106.48997179 8.92260742 109.01928711 C8.87571777 110.26597168 8.82882813 111.51265625 8.78051758 112.79711914 C8.75755615 113.91530029 8.73459473 115.03348145 8.7109375 116.18554688 C7.84072514 120.04090588 6.332399 121.03435181 3.05004883 123.11352539 C-2.01440283 125.06139141 -7.54564448 126.08755741 -12.94995117 125.11352539 C-14.55102539 123.95898438 -14.55102539 123.95898438 -15.94995117 122.11352539 C-16.33813477 119.44067383 -16.33813477 119.44067383 -16.34838867 116.22290039 C-16.35443115 115.04566406 -16.36047363 113.86842773 -16.36669922 112.65551758 C-16.35292236 111.40416016 -16.33914551 110.15280273 -16.32495117 108.86352539 C-16.3169751 107.58896484 -16.30899902 106.3144043 -16.30078125 105.0012207 C-16.16378168 95.94421952 -15.17572828 87.89354939 -12.94995117 79.11352539 C-12.59973917 77.19824166 -12.25005591 75.28278375 -11.92089844 73.36376953 C-8.66142197 54.51769282 -3.14278407 35.82823416 4.05004883 18.11352539 C-4.11177744 18.50846872 -11.36451296 20.15891332 -19.13745117 22.61352539 C-25.76163923 24.68176718 -32.01975081 26.51595123 -38.94995117 27.11352539 C-39.69213867 24.92211914 -39.69213867 24.92211914 -39.94995117 22.11352539 C-31.82389948 9.23026253 -15.09121611 -0.0263372 0 0 Z " fill="#FAFDFE" transform="translate(82.949951171875,33.886474609375)"/>
</svg>
